<svg id="图层_1" data-name="图层 1" xmlns="http://www.w3.org/2000/svg" xmlns:xlink="http://www.w3.org/1999/xlink" viewBox="0 0 457.41 81.88"><defs><style>.cls-1{fill:none;}.cls-2{clip-path:url(#clip-path);}.cls-3{fill:#21439b;}</style><clipPath id="clip-path" transform="translate(-60.39 -109.69)"><rect class="cls-1" x="-34.1" y="31.9" width="292.7" height="292.7"/></clipPath></defs><title>LOGO</title><path d="M196.6,139.3H178.4v-5.5h20.7v-8.6h7.1v8.6h18.6v5.5H205.4l-2.6,3.4h6.4l15.9,20.5h-8.6l-14.8-19-14.4,19.1h-8.9Z" transform="translate(-60.39 -109.69)"/><path d="M268.1,127a5.45,5.45,0,0,1,2.2.5,7.61,7.61,0,0,1,1.9,1.2,5.16,5.16,0,0,1,1.2,1.9,5.85,5.85,0,0,1,.5,2.2V137h-5.7v3.9H253.7l2.7,4.7v3.2l4.5-6.9h7.3l-4.8,7.4H266l6.8,14.1h-7.1l-6.3-13.3h-3v7.4a5.93,5.93,0,0,1-.5,2.3,7.61,7.61,0,0,1-1.2,1.9,5.16,5.16,0,0,1-1.9,1.2,5.85,5.85,0,0,1-2.2.5h-7.1l2.3-4.7h1.5A1.71,1.71,0,0,0,249,157v-.2l-21.8,5.4v-4.5l21.8-5.6v-1.4l-21.8,5.4v-4.5l21.6-5.3L248,145l-20.8,5.1v-5l18.5-4.1H231.6v-4H227V127h18.5l-.8-1.9h8l.8,1.9ZM234,131.9v4.4h33.2v-2.7a1.85,1.85,0,0,0-.5-1.2,1.35,1.35,0,0,0-1.2-.5Z" transform="translate(-60.39 -109.69)"/><path d="M321.6,152.3h-45v-5.2h6.7V135.2h-4.9V130h4.9v-4.6h7V130H308v-4.6h7V130h4.8v5.1H315V147h6.7v5.3Zm-44.5,10.9,6.6-8.3h8.9l-6.7,8.3Zm13.2-16.1H308V135.2H290.3Zm22.9,16.1-6.6-8.3h8.9l6.7,8.3Z" transform="translate(-60.39 -109.69)"/><path d="M351.5,126.8h20v4.7H324.9v-4.7h18.7l-.6-1.6h8Zm10.4,25.8h9.5v4H354.8v1a5.93,5.93,0,0,1-.5,2.3,5.67,5.67,0,0,1-1.2,1.8,6.15,6.15,0,0,1-1.9,1.2,5.93,5.93,0,0,1-2.3.5h-11l2-4.6h5.8a1.85,1.85,0,0,0,1.2-.5,1.35,1.35,0,0,0,.5-1.2v-.6H324.9v-4h24.3l4.7-2.2H329V146h37.4v4.3Zm7.2-14a5.93,5.93,0,0,1-.5,2.3,7.61,7.61,0,0,1-1.2,1.9,6.15,6.15,0,0,1-1.9,1.2,5.93,5.93,0,0,1-2.3.5H329V132.9h40.1Zm-7.3-1.2H335.9v2.3h24.3a1.85,1.85,0,0,0,1.2-.5,1.35,1.35,0,0,0,.5-1.2v-.6Z" transform="translate(-60.39 -109.69)"/><path d="M373.6,163.3l18.5-9.5v-4.1h9.3v3.8h5.1l5.1,3.7v-6.4a1.71,1.71,0,0,0-1.7-1.7H383v8.1h-7.4V144.4h37.5a5.93,5.93,0,0,1,2.3.5,7.61,7.61,0,0,1,1.9,1.2,6.15,6.15,0,0,1,1.2,1.9,5.93,5.93,0,0,1,.5,2.3v7h-7.3l8.7,6.2H409l-8.6-6.7-12.7,6.7H373.6Zm4.8-29.6h7.4l-3.5,9h-7.4Zm7.3-1.9h-7.4l-3.4-6.5h7.3Zm21.1,3.2-2.8,2h6l9.4,5.8H409.1l-6.7-4.7-6.7,4.7h-9.5l11.1-7.7v-2.2h9.4V135Zm13.5-8.3-3,8.2h-6.9l1.4-3.3H387.2l3-6.4h7.9l-.6,1.5Z" transform="translate(-60.39 -109.69)"/><path d="M429.8,163.4h-7.3l2.5-5.8V140.3h7.7l-4.8-5.1h9.7l4.8,5.1h9.1l4.8-5.1H466l-4.8,5.1h7.7v5.3H432.2v12Zm39.3-29.5h-44v-5.3h18.5l-1.5-3.5h7.3l1.6,3.5h18.1Z" transform="translate(-60.39 -109.69)"/><path d="M484.6,125.2h0l20,.1h7.2l5.8,11.4h-7.3l-3-5.9H482l-2.8,5.9h-7.9l5.4-11.4h7.9ZM479,157.8a1.14,1.14,0,0,0,.3.8,1.27,1.27,0,0,0,.9.4h37.6l-1.6,4.4H476.6a4.78,4.78,0,0,1-4.8-4.8V138.3h.1v-.1h44.6V150a4.1,4.1,0,0,1-4,4H485l2-5.1h20.8a1,1,0,0,0,1.1-1.1v-4.2h-30Z" transform="translate(-60.39 -109.69)"/><path d="M176,181.4l1.1-1.3a4.44,4.44,0,0,0,3.1,1.4c1.4,0,2.2-.7,2.2-1.7s-.8-1.4-1.9-1.9l-1.6-.7a3.49,3.49,0,0,1-2.4-3.1c0-1.9,1.6-3.3,3.9-3.3a5.15,5.15,0,0,1,3.6,1.5l-1,1.2a3.63,3.63,0,0,0-2.6-1.1c-1.2,0-2,.6-2,1.5s.9,1.4,1.9,1.8l1.6.7a3.33,3.33,0,0,1,2.4,3.2c0,1.9-1.6,3.4-4.2,3.4A5,5,0,0,1,176,181.4Z" transform="translate(-60.39 -109.69)"/><path d="M192.4,171.1h1.9v4.8h5.1v-4.8h1.9V183h-1.9v-5.4h-5.1V183h-1.9Z" transform="translate(-60.39 -109.69)"/><path d="M215.6,179.6h-4.1l-1,3.4h-1.9l3.9-11.8h2.2l3.9,11.8h-2Zm-.5-1.5-.5-1.6c-.4-1.3-.8-2.6-1.1-3.9h-.1c-.3,1.3-.7,2.7-1.1,3.9l-.5,1.6Z" transform="translate(-60.39 -109.69)"/><path d="M232.3,183l-2.7-4.8h-1.9V183h-1.9V171.2h3.9c2.4,0,4.3.9,4.3,3.4a3.37,3.37,0,0,1-2.5,3.4l2.9,5Zm-4.6-6.3h1.8c1.7,0,2.7-.7,2.7-2.1s-.9-1.9-2.7-1.9h-1.8Z" transform="translate(-60.39 -109.69)"/><path d="M242.2,171.1h7v1.6H244V176h4.3v1.6H244v3.8h5.3V183h-7.2V171.1Z" transform="translate(-60.39 -109.69)"/><path d="M257.6,171.1h3.1c3.6,0,5.7,2,5.7,5.9s-2.1,6-5.6,6h-3.2Zm2.9,10.3c2.5,0,3.9-1.5,3.9-4.4s-1.4-4.4-3.9-4.4h-1.1v8.8Z" transform="translate(-60.39 -109.69)"/><path d="M289.5,179.6h-4.1l-1,3.4h-1.9l3.9-11.8h2.2l3.9,11.8h-2Zm-.5-1.5-.5-1.6c-.4-1.3-.8-2.6-1.1-3.9h-.1c-.3,1.3-.7,2.7-1.1,3.9l-.5,1.6Z" transform="translate(-60.39 -109.69)"/><path d="M298.9,181.4l1.1-1.3a4.44,4.44,0,0,0,3.1,1.4c1.4,0,2.2-.7,2.2-1.7s-.8-1.4-1.9-1.9l-1.6-.7a3.49,3.49,0,0,1-2.4-3.1c0-1.9,1.6-3.3,3.9-3.3a5.15,5.15,0,0,1,3.6,1.5l-1,1.2a3.63,3.63,0,0,0-2.6-1.1c-1.2,0-2,.6-2,1.5s.9,1.4,1.9,1.8l1.6.7a3.33,3.33,0,0,1,2.4,3.2c0,1.9-1.6,3.4-4.2,3.4A5,5,0,0,1,298.9,181.4Z" transform="translate(-60.39 -109.69)"/><path d="M314.2,181.4l1.1-1.3a4.44,4.44,0,0,0,3.1,1.4c1.4,0,2.2-.7,2.2-1.7s-.8-1.4-1.9-1.9l-1.6-.7a3.49,3.49,0,0,1-2.4-3.1c0-1.9,1.6-3.3,3.9-3.3a5.15,5.15,0,0,1,3.6,1.5l-1,1.2a3.63,3.63,0,0,0-2.6-1.1c-1.2,0-2,.6-2,1.5s.9,1.4,1.9,1.8l1.6.7a3.33,3.33,0,0,1,2.4,3.2c0,1.9-1.6,3.4-4.2,3.4A5,5,0,0,1,314.2,181.4Z" transform="translate(-60.39 -109.69)"/><path d="M330.6,171.1h7v1.6h-5.1V176h4.3v1.6h-4.3v3.8h5.3V183h-7.2V171.1Z" transform="translate(-60.39 -109.69)"/><path d="M348.4,172.7H345v-1.6h8.8v1.6h-3.5V183h-1.9Z" transform="translate(-60.39 -109.69)"/><path d="M369.8,171.1h1.9l1.1,6.2.6,3.8h.1c.3-1.3.5-2.5.8-3.8l1.5-6.2h1.6l1.5,6.2c.3,1.2.5,2.5.8,3.8h.1c.2-1.3.4-2.6.6-3.8l1.1-6.2h1.8L381,182.9h-2.3l-1.6-6.6a25.58,25.58,0,0,1-.5-2.7h-.1a25.58,25.58,0,0,0-.5,2.7l-1.6,6.6h-2.3Z" transform="translate(-60.39 -109.69)"/><path d="M396.6,179.6h-4.1l-1,3.4h-1.9l3.9-11.8h2.2l3.9,11.8h-2Zm-.4-1.5-.5-1.6c-.4-1.3-.8-2.6-1.1-3.9h-.1c-.3,1.3-.7,2.7-1.1,3.9l-.5,1.6Z" transform="translate(-60.39 -109.69)"/><path d="M413.4,183l-2.7-4.8h-1.9V183h-1.9V171.2h3.9c2.4,0,4.3.9,4.3,3.4a3.37,3.37,0,0,1-2.5,3.4l2.9,5Zm-4.6-6.3h1.8c1.7,0,2.7-.7,2.7-2.1s-.9-1.9-2.7-1.9h-1.8Z" transform="translate(-60.39 -109.69)"/><path d="M423.2,171.1h7v1.6h-5.1V176h4.3v1.6h-4.3v3.8h5.3V183h-7.2V171.1Z" transform="translate(-60.39 -109.69)"/><path d="M438.6,171.1h1.9v4.8h5.1v-4.8h1.9V183h-1.9v-5.4h-5.1V183h-1.9Z" transform="translate(-60.39 -109.69)"/><path d="M455.7,177c0-3.8,2.1-6.1,5.1-6.1s5.2,2.3,5.2,6.1-2.1,6.2-5.2,6.2S455.7,180.8,455.7,177Zm8.4,0c0-2.8-1.3-4.5-3.2-4.5s-3.2,1.7-3.2,4.5,1.3,4.5,3.2,4.5S464.1,179.8,464.1,177Z" transform="translate(-60.39 -109.69)"/><path d="M474.1,177.9v-6.7H476v6.9c0,2.7,1.1,3.5,2.5,3.5s2.6-.9,2.6-3.5v-6.9h1.8v6.7c0,3.9-1.8,5.3-4.4,5.3S474.1,181.7,474.1,177.9Z" transform="translate(-60.39 -109.69)"/><path d="M490.8,181.4l1.1-1.3a4.44,4.44,0,0,0,3.1,1.4c1.4,0,2.2-.7,2.2-1.7s-.8-1.4-1.9-1.9l-1.6-.7a3.49,3.49,0,0,1-2.4-3.1c0-1.9,1.6-3.3,3.9-3.3a5.15,5.15,0,0,1,3.6,1.5l-1,1.2a3.63,3.63,0,0,0-2.6-1.1c-1.2,0-2,.6-2,1.5s.9,1.4,1.9,1.8l1.6.7a3.33,3.33,0,0,1,2.4,3.2c0,1.9-1.6,3.4-4.2,3.4A4.78,4.78,0,0,1,490.8,181.4Z" transform="translate(-60.39 -109.69)"/><path d="M507.1,171.1h7v1.6H509V176h4.3v1.6H509v3.8h5.3V183h-7.2V171.1Z" transform="translate(-60.39 -109.69)"/><g class="cls-2"><path class="cls-3" d="M164.3,173.8c-3.5-4-8.6-4.9-13.4-6.2,2,1.3,4.2,2.2,6,3.7,2.2,1.9,2.4,4.2.3,6.3a12,12,0,0,1-3.8,2.5,67.06,67.06,0,0,1-17.1,4.9,145.29,145.29,0,0,1-32.3,1.6,122.43,122.43,0,0,1-26.9-4.8,25.18,25.18,0,0,1-6.8-3.3c-3.3-2.3-3.3-5.1-.2-7.6,2.4-1.9,5.3-2.9,7.9-4.5-4.8,1.3-9.7,2.5-14,5.2-4.9,3.2-4.8,7.7.2,10.9a44,44,0,0,0,7.6,3.6c11.1,4.1,22.7,5,34.3,5.4,5.3.2,10.6-.1,16-.3a127.78,127.78,0,0,0,19.5-2.1c7.2-1.4,14.3-3.1,20.7-6.9,3.5-1.9,4.4-5.6,2-8.4" transform="translate(-60.39 -109.69)"/></g><g class="cls-2"><path class="cls-3" d="M80.2,177.1a28.85,28.85,0,0,0,9.9,4.1c14.7,3,29.5,2.7,44.2.2a36.14,36.14,0,0,0,11.5-4.2c3.1-1.8,3.3-4.5.5-6.8a16.89,16.89,0,0,0-6.7-2.9c.3.9,1,1,1.5,1.3,3,1.9,3.1,3.8.1,6a16.86,16.86,0,0,1-6,2.6,96.93,96.93,0,0,1-43.2.3c-2.7-.6-5.3-1.3-7.5-3.2s-2.2-3.9.4-5.5c1.3-.8,2.8-1.4,4.2-2.2-1.8-.1-7.1,1.9-8.9,3.1-3.2,2.1-3.3,5,0,7.2" transform="translate(-60.39 -109.69)"/></g><g class="cls-2"><path class="cls-3" d="M107.5,121.8c.8,2,4.5-1.2,5.4-2.2a3.28,3.28,0,0,0,1.2-2.4c0-.9-.2-1.4.5-2.1a10.55,10.55,0,0,0-1.9-.5c-.9-.3-4.7.1-5.1,1.6a15,15,0,0,0,.2,2c0,1.1-.7,2.7-.3,3.6" transform="translate(-60.39 -109.69)"/></g><g class="cls-2"><path class="cls-3" d="M114.9,121.5c.7-.1,1.1-1,.5-1.3v-.3c-1.2.3-2,1.9-.5,1.6" transform="translate(-60.39 -109.69)"/></g><g class="cls-2"><path class="cls-3" d="M102.8,126.9c-.7,0-1.1.6-1.5,1.1h.2c.7,0,1,.8,1.7.9a14.16,14.16,0,0,1-.4-2" transform="translate(-60.39 -109.69)"/></g><g class="cls-2"><path class="cls-3" d="M146.9,136.2a33.07,33.07,0,0,0-65.3,10A32.68,32.68,0,0,0,95,169.4c.1,0,.1-.1.2-.2a5.79,5.79,0,0,0,1.4-1.7c0-.1.1-.1.1-.2a5.94,5.94,0,0,0,.4-.8,4.88,4.88,0,0,0,.3-.7,13,13,0,0,0,.1-8.3,4.35,4.35,0,0,0-.6-.7,8.65,8.65,0,0,1-1-.7c-.3-.3-.4-.8-.7-1-.6-.6-1.6-.7-2-1.6a6.37,6.37,0,0,1-.2-.7c-.1-.3-.3-.4-.4-.7a1.2,1.2,0,0,1,.1-1.4c-1,.6-3.6-.1-3.8-1.4-.1.1-.4.1-.5.3-.4-.3-.6-.5-1.1-.4-.1.4.1,1.3-.5,1a2.29,2.29,0,0,1-1-1.3l-.8.6a1.23,1.23,0,0,0,.5.8c.7.5,1.1.4.8,1.4-.1.4-.3.8-.4,1.2a34.35,34.35,0,0,1-1.7-7.2,31.28,31.28,0,0,1-.1-5.3c.1.2.2.5.3.7.8,1.1,1.6,1.5,1.9,2.9a22.11,22.11,0,0,0,.5,3.3l.8-.8c-.1-.1-.1-.2-.2-.3A3.37,3.37,0,0,1,87,145c-.1-.5.1-1.1,0-1.5s-.4-.7-.6-1.2a3.46,3.46,0,0,1,.7-2.6c1.3-1.4,1.8.7,2.5,1.5.4.5,1,.6,1.2,1.2.1.3-.2.7.2,1s.9,0,1.2,0c-.1-1.1-2.1-2.3-2.8-3.2-.4-.5-.7-1.2-1.4-1.1s-1.1,1-1.5,0a1.28,1.28,0,0,1-1.4.5,6,6,0,0,1,.5-3c.3-1,.4-2.1.8-3.2a1.37,1.37,0,0,1,.8,1c0-.1.2-.3.3-.4,2.7,0,1.1,3.1,1.4,4.5,1.4-1.5.4-4.3,2.5-5.1,1-.4,1.3-1.2,2.2-1.8.4-.3.6-.6,1.1-.7s.7,0,1-.3c-.7-1.2,2.6-3.4,2-1l1.2-.3c.9-.1,1,0,1.4-.6.1-.1.1-.2.2-.3a.52.52,0,0,1-.4.2c-.4.2-1.5,0-1.7-.5-.3-.9,1.4-.8,1.8-.9a2.13,2.13,0,0,0-1.5-.7c1-.6,2.2,0,3.2-.4,1.2-.5.1-1.1,0-1.9-.1-1,1.1-1.2.7-2.3,0,.1-.7-.1-.8-.1-.2-.2-.2-.5-.4-.7s-.2-.6-.5-.7c-.5-.1-.4.4-.7.6s-.7.1-.9.3c-.4.3-.2.6-.4.9-.2.5-.5.6-.9,1s-2,2.1-1.7.4c.1-.7.7-.7.8-1.3.1-.8-.4-1.1,0-2a1.52,1.52,0,0,1,.9-1c.5-.2,1.1-.9,1.6-1s.8.4,1.2.4c.6,0,1.2-.6,1.7-1-.1,0-.3-.2-.5-.2-.2-.8,2-1.6,2.6-1.5,0,.6-1.3,1.4-1.7,1.8h.5c.4,1.2-.9.8-1.5,1.2-.8.5.3,2.2,1.1,1.6-.5-.5.3-1.5,1-1.5a2.77,2.77,0,0,1,.1.9c.9-.2,1.6-2.1,1.5-3-.1-.4-.5-.4-.6-.6-.1-.4.3-.6.5-.4a3.08,3.08,0,0,0,1.2-.5c.5-.3,1.7-.4,1.9-.9-.8-.8-1.9.7-2.1-.6-.4,0-.8.2-.7.7-.4.1-.8,0-1,.3.5.8-.8.8-1.1.4a5,5,0,0,1-1.3.4c.1-.7,2.5-1.3,1.8-1.6-.4-.2-1.7.5-2.4.7h0a33.17,33.17,0,0,1,9-2.4,30.06,30.06,0,0,1,13.4,1.6,2.84,2.84,0,0,1,.4,1.3,1.61,1.61,0,0,0,.4.7c.2.2.5.4.5.8s-.6.6-.9.4.1-.5-.1-.8-.8.1-1,.1c-.8.2-2-.1-2.4.6-.3.4-.1.9,0,1.3a2.6,2.6,0,0,1,.4,1.5c0,.5.3,2.8,1.3,2.4.4-.2.2-.7.7-.8s.8.6,1.3.6.5-.5.3-.9-.3-.4-.6-.7c-.7-.5-1.6-1.7-1.4-2.6.8-.2,1,1.3,1.4,1.7a1.49,1.49,0,0,0,.9.4c.6,0,.9-.9,1.5-.8-.1.6-1.2.9-.8,1.6s1.6,1.4,1.3,2.1c-.2-.1-.4-.4-.6-.3s-.1.3-.2.4c-.3.5-.1.2-.5.2-.2,0-.4-.3-.4.2a4,4,0,0,1-2-1.1c-.1.5.8,1.3.5,1.6-.1.1-.5,0-.6.2a1.75,1.75,0,0,0-.4,1.2c-.9.1-2-1.5-2.6-2s-1.8-1.1-1.2.2c.2.5.4.5.1.9s-.7.8-.6,1.5.8,1.1,1,.2a9.7,9.7,0,0,0-.1-1.7,2.13,2.13,0,0,1,1,.9c.2.3.3.4.2.8a2.18,2.18,0,0,1-.4.5c-.2,1.1,2.1-.5,2.4-.4s.4.5.2.8-1,.1-1.2.6c-.1.2.2.6.3.7.5.6,1.2.9,1.5,1.7a1.69,1.69,0,0,1-1,.3,2.77,2.77,0,0,1-.9-.1,6.31,6.31,0,0,0-.9-.4c-.6.2.2,1.9.3,2.3a5.26,5.26,0,0,0,.4,1.7c.2.3.1.2.4.1s.3-.5.8-.2a2.19,2.19,0,0,1,.3.5c0,.1.1.1.2.1h.1c.2,0,.5-.3.6-.4a6.12,6.12,0,0,1,1.2-.5c.3-.2.3-.1.2-.5s-.2-.6-.2-.9a10.37,10.37,0,0,1,.4-1c.1-.3.1-.6.2-.9.2-.5.5-.6.8-1,.5-.7.7-1.1,1.6-.6a9.14,9.14,0,0,1,1.4.7c.6.4,1,1.1,1.5,1.5-.1-.4.2-.6.5-.7-.2-.3-1-.5-1.3-.6a5.67,5.67,0,0,1-1.3-.8,7.27,7.27,0,0,1-.9-.8,6.82,6.82,0,0,1,3.5,1,3.46,3.46,0,0,1,1,1.1c.2.3.7.9,1.2.8.1-.6-.9-.9-1-1.6,0-.4.1-.7.5-.7,1-.1,1,1.2,1.7,1.5a1.8,1.8,0,0,0,1.2-.3c.2-.2.2-.7.6-.6l.6.7a3.81,3.81,0,0,1,.8,1.7c.1.4,0,.7.1,1.1v.1a7,7,0,0,0-1.4.3c.1.5,1.1.4.5.9-.3.2-.5,0-.8,0h-.6c-.2,0-.7.2-.9.1-.4-.1-.1-.1-.4-.4s-.5-.6-.8-.9c-.2.3-.5.3-.7.5s-.5.5-.8.7a3.55,3.55,0,0,0-.9.4c-.2.3-.2.9-.4,1.3a3.55,3.55,0,0,1-.9-.4h-.1c-.1,0-.1,0-.1-.1-.1.4.1.9,0,1.4s-.6.9-.3,1.3c.1.1.3-.1.4.1s-.1.5-.2.6a1.61,1.61,0,0,1-.4.7c-.1.1-.3,0-.4.1s.1.9.1,1.2-.4.7-.4,1.1a.6.6,0,0,0,.1.4,2.3,2.3,0,0,0,1.7,1.6,64.31,64.31,0,0,0,7.5,1.4c.7,0,1.5.6,1.5-.7a2.94,2.94,0,0,1,1,1.2c.1.4,0,1,.2,1.3.1.1.5.2.6.4a2.41,2.41,0,0,1,.6.8,2.2,2.2,0,0,1,.6,1.5c-.5-.2-.7.8-.7,1.1-.1.8-.3,1.2.3,1.7s.3.7.3,1.5a33,33,0,0,1-4.3,7.8.76.76,0,0,0-.2.4v-1.9l-8.7-4.4v-9.6l-10-4.5-10,3.7v10.5l-9.6,3.5V169l10,5.5,8.7-4.4,8.7,5.2,10.9-4.6v-8.4a1.37,1.37,0,0,0,2.4.3,31.8,31.8,0,0,0,6.4-26.4m-10.8-10.1-.2.2-.1.1a1,1,0,0,1-.8.4l-.3.6c-.1.2-.4.1-.6,0a6.08,6.08,0,0,1-.9-1.8h0c-.2-.5.6-.7.7-.2a.76.76,0,0,0,.2.5h.1a.6.6,0,0,1,.1-.4c0-.1.1-.1.1-.2s0-.1-.1-.2c-.1-.6-.7-1.7-.2-2.3.6.5.2,1.6.6,2s.9.1,1.2.3c.6.4.5.7.2,1m2.3-.8a3.45,3.45,0,0,0-.8-.9l-.9-.3a1.84,1.84,0,0,1-1.2-1.7c.1-.6.2-.3.5-.1a8.34,8.34,0,0,0,1.2.8,13.07,13.07,0,0,0,1.2,1.1c.1.1.3.2.4.3l.6.9v.2c0,.8-.8-.1-1-.3m-28.5,37.8-8.3-3.9,8.4-3.1,7.8,3.7Zm8.4,6.2-8.1,4.1v-9.5h0l8.1-3.3Zm-7.2-24.1,8.5-3.1,8.4,3.8-9,3.2Zm8.1,4.9,9.6-3.4v8.7l-9.6,3.9Zm.8,9.8,9.2-3.8,7.7,3.8-9.4,3.9Zm17.5,10.3-9.3,3.9-.3-9.4,9.6-4Zm5-39.2c-.8-.7-1.6-1.6-1.7-1.7a4.87,4.87,0,0,0,1.1.4c.2.4.8,1.5.6,1.3" transform="translate(-60.39 -109.69)"/></g></svg>